<svg width="62" height="22" viewBox="0 0 62 22" fill="none" xmlns="http://www.w3.org/2000/svg">
<rect x="1" y="1" width="60" height="20" rx="10" stroke="#4C4C4C"/>
<path d="M23.6738 9.69727H24.5137V15H23.6738V9.69727ZM24.0938 8.81836C23.9342 8.81836 23.7959 8.76465 23.6787 8.65723C23.5648 8.5498 23.5078 8.42122 23.5078 8.27148C23.5078 8.11523 23.5632 7.98177 23.6738 7.87109C23.7878 7.76042 23.9245 7.70508 24.084 7.70508C24.25 7.70508 24.3916 7.75879 24.5088 7.86621C24.626 7.97363 24.6862 8.10547 24.6895 8.26172C24.6862 8.41471 24.626 8.54655 24.5088 8.65723C24.3949 8.76465 24.2565 8.81836 24.0938 8.81836ZM31.9355 11.4648C31.9355 12.1973 31.8021 12.8385 31.5352 13.3887C31.2682 13.9355 30.8971 14.3571 30.4219 14.6533C29.9499 14.9495 29.4128 15.0977 28.8105 15.0977C28.2051 15.0977 27.6647 14.9495 27.1895 14.6533C26.7174 14.3571 26.348 13.9355 26.0811 13.3887C25.8174 12.8385 25.6855 12.1973 25.6855 11.4648C25.6855 10.7324 25.8174 10.0928 26.0811 9.5459C26.348 8.99577 26.7174 8.57259 27.1895 8.27637C27.6647 7.98014 28.2051 7.83203 28.8105 7.83203C29.4128 7.83203 29.9499 7.98014 30.4219 8.27637C30.8971 8.57259 31.2682 8.99577 31.5352 9.5459C31.8021 10.0928 31.9355 10.7324 31.9355 11.4648ZM26.5352 11.4648C26.5352 12.054 26.6344 12.5602 26.833 12.9834C27.0316 13.4066 27.3018 13.7272 27.6436 13.9453C27.9886 14.1634 28.3776 14.2741 28.8105 14.2773C29.2435 14.2741 29.6309 14.1634 29.9727 13.9453C30.3177 13.7272 30.5895 13.4066 30.7881 12.9834C30.9867 12.5602 31.0859 12.054 31.0859 11.4648C31.0859 10.8724 30.9867 10.3646 30.7881 9.94141C30.5895 9.51823 30.3177 9.19759 29.9727 8.97949C29.6309 8.76139 29.2435 8.65234 28.8105 8.65234C28.3776 8.65234 27.9886 8.76139 27.6436 8.97949C27.3018 9.19759 27.0316 9.51823 26.833 9.94141C26.6344 10.3646 26.5352 10.8724 26.5352 11.4648ZM37.082 9.70703C37.0592 9.47917 36.9779 9.28385 36.8379 9.12109C36.6979 8.95508 36.514 8.82975 36.2861 8.74512C36.0583 8.65723 35.8027 8.61328 35.5195 8.61328C35.2135 8.61328 34.9434 8.66374 34.709 8.76465C34.4746 8.8623 34.2923 8.99902 34.1621 9.1748C34.0319 9.35059 33.9668 9.55078 33.9668 9.77539C33.9701 10.1042 34.1051 10.3564 34.3721 10.5322C34.639 10.7048 34.9596 10.8366 35.334 10.9277L36.0371 11.123C36.584 11.263 37.0544 11.4779 37.4482 11.7676C37.8421 12.0573 38.0391 12.4935 38.0391 13.0762C38.0391 13.4635 37.9382 13.8135 37.7363 14.126C37.5345 14.4352 37.2399 14.6794 36.8525 14.8584C36.4652 15.0374 36.0046 15.127 35.4707 15.127C34.9694 15.127 34.5316 15.0456 34.1572 14.8828C33.7861 14.7168 33.4948 14.4873 33.2832 14.1943C33.0716 13.8981 32.9512 13.5547 32.9219 13.1641H33.8203C33.8431 13.418 33.931 13.6328 34.084 13.8086C34.237 13.9844 34.4339 14.1162 34.6748 14.2041C34.9189 14.2887 35.1842 14.3294 35.4707 14.3262C35.7962 14.3262 36.0876 14.2741 36.3447 14.1699C36.6051 14.0658 36.8086 13.9176 36.9551 13.7256C37.1048 13.5303 37.1797 13.3073 37.1797 13.0566C37.1797 12.8385 37.1178 12.6562 36.9941 12.5098C36.8737 12.3633 36.7142 12.2445 36.5156 12.1533C36.3171 12.0622 36.0729 11.9759 35.7832 11.8945L34.9141 11.6602C34.3346 11.4909 33.8887 11.2565 33.5762 10.957C33.2669 10.6576 33.1139 10.2767 33.1172 9.81445C33.1172 9.42383 33.223 9.07878 33.4346 8.7793C33.6462 8.47656 33.9375 8.24382 34.3086 8.08105C34.6797 7.91504 35.0931 7.83203 35.5488 7.83203C35.998 7.83203 36.4017 7.91341 36.7598 8.07617C37.1211 8.23893 37.4059 8.46354 37.6143 8.75C37.8226 9.0332 37.9316 9.35221 37.9414 9.70703H37.082Z" fill="#4C4C4C"/>
</svg>
