<svg width="20" height="21" viewBox="0 0 20 21" fill="none" xmlns="http://www.w3.org/2000/svg">
<path d="M10.0162 18.1081C8.07457 18.1081 6.1329 17.7998 4.29123 17.1831C3.59123 16.9414 3.0579 16.4498 2.82457 15.8081C2.5829 15.1664 2.66623 14.4581 3.04957 13.8248L4.0079 12.2331C4.2079 11.8998 4.39123 11.2331 4.39123 10.8414V8.43311C4.39123 5.33311 6.91623 2.80811 10.0162 2.80811C13.1162 2.80811 15.6412 5.33311 15.6412 8.43311V10.8414C15.6412 11.2248 15.8246 11.8998 16.0246 12.2414L16.9746 13.8248C17.3329 14.4248 17.3996 15.1498 17.1579 15.8081C16.9162 16.4664 16.3912 16.9664 15.7329 17.1831C13.8996 17.7998 11.9579 18.1081 10.0162 18.1081ZM10.0162 4.05811C7.6079 4.05811 5.64123 6.01644 5.64123 8.43311V10.8414C5.64123 11.4498 5.39123 12.3498 5.0829 12.8748L4.12457 14.4664C3.94123 14.7748 3.89123 15.0998 3.99957 15.3748C4.09957 15.6581 4.34957 15.8748 4.69123 15.9914C8.17457 17.1581 11.8662 17.1581 15.3496 15.9914C15.6496 15.8914 15.8829 15.6664 15.9912 15.3664C16.0996 15.0664 16.0746 14.7414 15.9079 14.4664L14.9496 12.8748C14.6329 12.3331 14.3912 11.4414 14.3912 10.8331V8.43311C14.3912 6.01644 12.4329 4.05811 10.0162 4.05811Z" fill="black"/>
<path d="M11.5668 4.2834C11.5085 4.2834 11.4502 4.27507 11.3918 4.2584C11.1502 4.19173 10.9168 4.14173 10.6918 4.1084C9.98351 4.01673 9.30018 4.06673 8.65851 4.2584C8.42518 4.3334 8.17518 4.2584 8.01684 4.0834C7.85851 3.9084 7.80851 3.6584 7.90018 3.4334C8.24184 2.5584 9.07518 1.9834 10.0252 1.9834C10.9752 1.9834 11.8085 2.55007 12.1502 3.4334C12.2335 3.6584 12.1918 3.9084 12.0335 4.0834C11.9085 4.21673 11.7335 4.2834 11.5668 4.2834Z" fill="black"/>
<path d="M10.0166 20.0083C9.1916 20.0083 8.3916 19.675 7.80827 19.0916C7.22493 18.5083 6.8916 17.7083 6.8916 16.8833H8.1416C8.1416 17.375 8.3416 17.8583 8.6916 18.2083C9.0416 18.5583 9.52493 18.7583 10.0166 18.7583C11.0499 18.7583 11.8916 17.9166 11.8916 16.8833H13.1416C13.1416 18.6083 11.7416 20.0083 10.0166 20.0083Z" fill="black"/>
<circle cx="17.5" cy="2.5" r="2.5" fill="#FC3434"/>
</svg>
