<svg width="68" height="28" viewBox="0 0 68 28" fill="none" xmlns="http://www.w3.org/2000/svg">
<g filter="url(#filter0_d_1583_648)">
<rect width="60" height="20" rx="10" fill="#5AAC73"/>
<path d="M13.0938 13L13.8018 11.0078H16.6436L17.3516 13H18.2793L15.6914 5.92969H14.7637L12.1758 13H13.0938ZM14.0703 10.2363L15.1934 7.07227H15.252L16.375 10.2363H14.0703ZM19.9688 9.81641C19.9688 8.89844 20.5352 8.38086 21.3066 8.38086C22.0586 8.38086 22.5078 8.86914 22.5078 9.68945V13H23.3477V9.63086C23.3525 8.2832 22.6348 7.62891 21.5605 7.62891C20.7549 7.62891 20.2568 7.98535 20.0078 8.52734H19.9395V7.69727H19.1289V13H19.9688V9.81641ZM26.6973 13.1074C27.708 13.1123 28.0547 12.4824 28.2402 12.1895H28.3281V13H29.1484V5.92969H28.2988V8.53711H28.2402C28.0596 8.25391 27.7373 7.62891 26.707 7.62891C25.374 7.62891 24.4414 8.68359 24.4414 10.3633C24.4414 12.0479 25.374 13.1123 26.6973 13.1074ZM25.291 10.3438C25.291 9.23535 25.7939 8.38086 26.8145 8.38086C27.8008 8.38086 28.3232 9.16699 28.3281 10.3438C28.3232 11.5352 27.7861 12.3555 26.8145 12.3555C25.8086 12.3555 25.291 11.4717 25.291 10.3438ZM30.6035 13H31.4434V9.66016C31.4434 8.94727 32.0098 8.41992 32.7715 8.41992C32.9912 8.41992 33.2158 8.46387 33.2793 8.47852V7.62891C33.1816 7.61914 32.9668 7.61426 32.8398 7.60938C32.2148 7.61426 31.6631 7.9707 31.4727 8.50781H31.4141V7.69727H30.6035V13ZM36.0918 13.1074C37.5322 13.1123 38.499 12.0186 38.4941 10.373C38.499 8.71777 37.5322 7.62891 36.0918 7.62891C34.6465 7.62891 33.6699 8.71777 33.6699 10.373C33.6699 12.0186 34.6465 13.1123 36.0918 13.1074ZM34.5098 10.373C34.5146 9.31836 35.0127 8.37109 36.0918 8.37109C37.1611 8.37109 37.6543 9.31836 37.6543 10.373C37.6543 11.4326 37.1611 12.3652 36.0918 12.3652C35.0127 12.3652 34.5146 11.4326 34.5098 10.373ZM39.5977 13H40.4375V7.69727H39.5977V13ZM39.4316 6.26172C39.4268 6.56934 39.6953 6.81836 40.0176 6.81836C40.3398 6.81836 40.6084 6.56934 40.6133 6.26172C40.6084 5.94922 40.3398 5.7002 40.0176 5.70508C39.6953 5.7002 39.4268 5.94922 39.4316 6.26172ZM43.7773 13.1074C44.7881 13.1123 45.1348 12.4824 45.3203 12.1895H45.4082V13H46.2285V5.92969H45.3789V8.53711H45.3203C45.1396 8.25391 44.8174 7.62891 43.7871 7.62891C42.4541 7.62891 41.5215 8.68359 41.5215 10.3633C41.5215 12.0479 42.4541 13.1123 43.7773 13.1074ZM42.3711 10.3438C42.3711 9.23535 42.874 8.38086 43.8945 8.38086C44.8809 8.38086 45.4033 9.16699 45.4082 10.3438C45.4033 11.5352 44.8662 12.3555 43.8945 12.3555C42.8887 12.3555 42.3711 11.4717 42.3711 10.3438Z" fill="white"/>
</g>
<defs>
<filter id="filter0_d_1583_648" x="0" y="0" width="68" height="28" filterUnits="userSpaceOnUse" color-interpolation-filters="sRGB">
<feFlood flood-opacity="0" result="BackgroundImageFix"/>
<feColorMatrix in="SourceAlpha" type="matrix" values="0 0 0 0 0 0 0 0 0 0 0 0 0 0 0 0 0 0 127 0" result="hardAlpha"/>
<feOffset dx="4" dy="4"/>
<feGaussianBlur stdDeviation="2"/>
<feComposite in2="hardAlpha" operator="out"/>
<feColorMatrix type="matrix" values="0 0 0 0 0 0 0 0 0 0 0 0 0 0 0 0 0 0 0.1 0"/>
<feBlend mode="normal" in2="BackgroundImageFix" result="effect1_dropShadow_1583_648"/>
<feBlend mode="normal" in="SourceGraphic" in2="effect1_dropShadow_1583_648" result="shape"/>
</filter>
</defs>
</svg>
