<svg width="70" height="30" viewBox="0 0 70 30" fill="none" xmlns="http://www.w3.org/2000/svg">
<g filter="url(#filter0_d_2799_686)">
<rect x="1" y="1" width="60" height="20" rx="10" stroke="#5AAC73"/>
<path d="M13.1758 14L15.7637 6.92969H16.6914L19.2793 14H18.3516L17.6436 12.0078H14.8018L14.0938 14H13.1758ZM17.375 11.2363L16.252 8.07227H16.1934L15.0703 11.2363H17.375ZM20.9688 14H20.1289V8.69727H20.9395V9.52734H21.0078C21.138 9.24414 21.3317 9.02441 21.5889 8.86816C21.8493 8.70866 22.1732 8.62891 22.5605 8.62891C22.9251 8.62891 23.2409 8.70378 23.5078 8.85352C23.7747 9 23.9814 9.22298 24.1279 9.52246C24.2744 9.82194 24.3477 10.1914 24.3477 10.6309V14H23.5078V10.6895C23.5078 10.2793 23.402 9.95866 23.1904 9.72754C22.9788 9.49642 22.6842 9.38086 22.3066 9.38086C22.0462 9.38086 21.8151 9.43783 21.6133 9.55176C21.4115 9.66243 21.2536 9.82682 21.1396 10.0449C21.0257 10.2598 20.9688 10.5169 20.9688 10.8164V14ZM27.6973 14.1074C27.2578 14.1074 26.8672 13.9967 26.5254 13.7754C26.1836 13.5508 25.9167 13.2318 25.7246 12.8184C25.5358 12.4017 25.4414 11.9167 25.4414 11.3633C25.4414 10.8132 25.5358 10.3314 25.7246 9.91797C25.9167 9.50456 26.1836 9.18717 26.5254 8.96582C26.8704 8.74121 27.2643 8.62891 27.707 8.62891C28.0195 8.62891 28.2783 8.68099 28.4834 8.78516C28.6885 8.88607 28.8366 8.99186 28.9277 9.10254C29.0221 9.21322 29.1263 9.35807 29.2402 9.53711H29.2988V6.92969H30.1484V14H29.3281V13.1895H29.2402C29.1296 13.362 29.0238 13.5085 28.9229 13.6289C28.8252 13.7461 28.6722 13.8551 28.4639 13.9561C28.2588 14.057 28.0033 14.1074 27.6973 14.1074ZM26.291 11.3438C26.291 11.7279 26.348 12.0713 26.4619 12.374C26.5791 12.6768 26.7516 12.916 26.9795 13.0918C27.2106 13.2676 27.4889 13.3555 27.8145 13.3555C28.1335 13.3555 28.4053 13.2725 28.6299 13.1064C28.8577 12.9372 29.0303 12.7012 29.1475 12.3984C29.2646 12.0957 29.3249 11.7441 29.3281 11.3438C29.3249 10.9499 29.2646 10.6048 29.1475 10.3086C29.0335 10.0124 28.8626 9.78451 28.6348 9.625C28.4102 9.46224 28.1367 9.38086 27.8145 9.38086C27.4857 9.38086 27.2057 9.46549 26.9746 9.63477C26.7467 9.80404 26.5758 10.0368 26.4619 10.333C26.348 10.6292 26.291 10.9661 26.291 11.3438ZM31.6035 8.69727H32.4141V9.50781H32.4727C32.5671 9.24089 32.7396 9.02604 32.9902 8.86328C33.2441 8.69727 33.5273 8.61263 33.8398 8.60938C33.8854 8.60938 33.9212 8.611 33.9473 8.61426C33.9863 8.61426 34.0433 8.61589 34.1182 8.61914C34.193 8.6224 34.2467 8.62565 34.2793 8.62891V9.47852C34.11 9.43945 33.9408 9.41992 33.7715 9.41992C33.5208 9.41992 33.2946 9.47363 33.0928 9.58105C32.891 9.68848 32.7314 9.83659 32.6143 10.0254C32.5003 10.2142 32.4434 10.4258 32.4434 10.6602V14H31.6035V8.69727ZM37.0918 14.1074C36.6133 14.1074 36.1901 13.9951 35.8223 13.7705C35.4577 13.5426 35.1745 13.222 34.9727 12.8086C34.7708 12.3952 34.6699 11.9167 34.6699 11.373C34.6699 10.8262 34.7708 10.346 34.9727 9.93262C35.1745 9.51921 35.4577 9.19857 35.8223 8.9707C36.1901 8.74284 36.6133 8.62891 37.0918 8.62891C37.5671 8.62891 37.987 8.74284 38.3516 8.9707C38.7161 9.19857 38.9977 9.51921 39.1963 9.93262C39.3949 10.346 39.4941 10.8262 39.4941 11.373C39.4941 11.9167 39.3949 12.3952 39.1963 12.8086C38.9977 13.222 38.7161 13.5426 38.3516 13.7705C37.987 13.9951 37.5671 14.1074 37.0918 14.1074ZM35.5098 11.373C35.513 11.7376 35.5716 12.0713 35.6855 12.374C35.8027 12.6768 35.9801 12.9176 36.2178 13.0967C36.4554 13.2757 36.7467 13.3652 37.0918 13.3652C37.4336 13.3652 37.7217 13.2757 37.9561 13.0967C38.1904 12.9176 38.3646 12.6768 38.4785 12.374C38.5957 12.0713 38.6543 11.7376 38.6543 11.373C38.6543 11.0085 38.5957 10.6748 38.4785 10.3721C38.3646 10.0693 38.1904 9.82682 37.9561 9.64453C37.7217 9.46224 37.4336 9.37109 37.0918 9.37109C36.7467 9.37109 36.4554 9.46224 36.2178 9.64453C35.9801 9.82682 35.8027 10.0693 35.6855 10.3721C35.5716 10.6748 35.513 11.0085 35.5098 11.373ZM40.5977 8.69727H41.4375V14H40.5977V8.69727ZM41.0176 7.81836C40.8581 7.81836 40.7197 7.76465 40.6025 7.65723C40.4886 7.5498 40.4316 7.42122 40.4316 7.27148C40.4316 7.11523 40.487 6.98177 40.5977 6.87109C40.7116 6.76042 40.8483 6.70508 41.0078 6.70508C41.1738 6.70508 41.3154 6.75879 41.4326 6.86621C41.5498 6.97363 41.61 7.10547 41.6133 7.26172C41.61 7.41471 41.5498 7.54655 41.4326 7.65723C41.3187 7.76465 41.1803 7.81836 41.0176 7.81836ZM44.7773 14.1074C44.3379 14.1074 43.9473 13.9967 43.6055 13.7754C43.2637 13.5508 42.9967 13.2318 42.8047 12.8184C42.6159 12.4017 42.5215 11.9167 42.5215 11.3633C42.5215 10.8132 42.6159 10.3314 42.8047 9.91797C42.9967 9.50456 43.2637 9.18717 43.6055 8.96582C43.9505 8.74121 44.3444 8.62891 44.7871 8.62891C45.0996 8.62891 45.3584 8.68099 45.5635 8.78516C45.7686 8.88607 45.9167 8.99186 46.0078 9.10254C46.1022 9.21322 46.2064 9.35807 46.3203 9.53711H46.3789V6.92969H47.2285V14H46.4082V13.1895H46.3203C46.2096 13.362 46.1038 13.5085 46.0029 13.6289C45.9053 13.7461 45.7523 13.8551 45.5439 13.9561C45.3389 14.057 45.0833 14.1074 44.7773 14.1074ZM43.3711 11.3438C43.3711 11.7279 43.4281 12.0713 43.542 12.374C43.6592 12.6768 43.8317 12.916 44.0596 13.0918C44.2907 13.2676 44.569 13.3555 44.8945 13.3555C45.2135 13.3555 45.4854 13.2725 45.71 13.1064C45.9378 12.9372 46.1104 12.7012 46.2275 12.3984C46.3447 12.0957 46.4049 11.7441 46.4082 11.3438C46.4049 10.9499 46.3447 10.6048 46.2275 10.3086C46.1136 10.0124 45.9427 9.78451 45.7148 9.625C45.4902 9.46224 45.2168 9.38086 44.8945 9.38086C44.5658 9.38086 44.2858 9.46549 44.0547 9.63477C43.8268 9.80404 43.6559 10.0368 43.542 10.333C43.4281 10.6292 43.3711 10.9661 43.3711 11.3438Z" fill="#5AAC73"/>
</g>
<defs>
<filter id="filter0_d_2799_686" x="0.5" y="0.5" width="69" height="29" filterUnits="userSpaceOnUse" color-interpolation-filters="sRGB">
<feFlood flood-opacity="0" result="BackgroundImageFix"/>
<feColorMatrix in="SourceAlpha" type="matrix" values="0 0 0 0 0 0 0 0 0 0 0 0 0 0 0 0 0 0 127 0" result="hardAlpha"/>
<feOffset dx="4" dy="4"/>
<feGaussianBlur stdDeviation="2"/>
<feComposite in2="hardAlpha" operator="out"/>
<feColorMatrix type="matrix" values="0 0 0 0 0 0 0 0 0 0 0 0 0 0 0 0 0 0 0.1 0"/>
<feBlend mode="normal" in2="BackgroundImageFix" result="effect1_dropShadow_2799_686"/>
<feBlend mode="normal" in="SourceGraphic" in2="effect1_dropShadow_2799_686" result="shape"/>
</filter>
</defs>
</svg>
