<svg width="70" height="30" viewBox="0 0 70 30" fill="none" xmlns="http://www.w3.org/2000/svg">
<g filter="url(#filter0_d_2799_683)">
<rect x="1" y="1" width="60" height="20" rx="10" stroke="#628FD3"/>
<path d="M20.6387 8.70703C20.6159 8.47917 20.5345 8.28385 20.3945 8.12109C20.2546 7.95508 20.0706 7.82975 19.8428 7.74512C19.6149 7.65723 19.3594 7.61328 19.0762 7.61328C18.7702 7.61328 18.5 7.66374 18.2656 7.76465C18.0312 7.8623 17.849 7.99902 17.7188 8.1748C17.5885 8.35059 17.5234 8.55078 17.5234 8.77539C17.5267 9.10417 17.6618 9.35645 17.9287 9.53223C18.1956 9.70475 18.5163 9.83659 18.8906 9.92773L19.5938 10.123C20.1406 10.263 20.611 10.4779 21.0049 10.7676C21.3988 11.0573 21.5957 11.4935 21.5957 12.0762C21.5957 12.4635 21.4948 12.8135 21.293 13.126C21.0911 13.4352 20.7965 13.6794 20.4092 13.8584C20.0218 14.0374 19.5612 14.127 19.0273 14.127C18.526 14.127 18.0882 14.0456 17.7139 13.8828C17.3428 13.7168 17.0514 13.4873 16.8398 13.1943C16.6283 12.8981 16.5078 12.5547 16.4785 12.1641H17.377C17.3997 12.418 17.4876 12.6328 17.6406 12.8086C17.7936 12.9844 17.9906 13.1162 18.2314 13.2041C18.4756 13.2887 18.7409 13.3294 19.0273 13.3262C19.3529 13.3262 19.6442 13.2741 19.9014 13.1699C20.1618 13.0658 20.3652 12.9176 20.5117 12.7256C20.6615 12.5303 20.7363 12.3073 20.7363 12.0566C20.7363 11.8385 20.6745 11.6562 20.5508 11.5098C20.4303 11.3633 20.2708 11.2445 20.0723 11.1533C19.8737 11.0622 19.6296 10.9759 19.3398 10.8945L18.4707 10.6602C17.8913 10.4909 17.4453 10.2565 17.1328 9.95703C16.8236 9.65755 16.6706 9.27669 16.6738 8.81445C16.6738 8.42383 16.7796 8.07878 16.9912 7.7793C17.2028 7.47656 17.4941 7.24382 17.8652 7.08105C18.2363 6.91504 18.6497 6.83203 19.1055 6.83203C19.5547 6.83203 19.9583 6.91341 20.3164 7.07617C20.6777 7.23893 20.9626 7.46354 21.1709 7.75C21.3792 8.0332 21.4883 8.35221 21.498 8.70703H20.6387ZM24.9746 14.1074C24.4701 14.1074 24.0306 13.9951 23.6562 13.7705C23.2819 13.5459 22.9938 13.2285 22.792 12.8184C22.5934 12.4082 22.4941 11.9329 22.4941 11.3926C22.4941 10.8522 22.5934 10.3737 22.792 9.95703C22.9938 9.53711 23.2754 9.21159 23.6367 8.98047C24.0013 8.74609 24.4212 8.62891 24.8965 8.62891C25.2969 8.62891 25.6696 8.71842 26.0146 8.89746C26.3597 9.07324 26.6396 9.3597 26.8545 9.75684C27.0726 10.1507 27.1816 10.6569 27.1816 11.2754V11.627H23.334C23.347 11.9948 23.4235 12.3089 23.5635 12.5693C23.7067 12.8298 23.8988 13.0283 24.1396 13.165C24.3805 13.2985 24.6589 13.3652 24.9746 13.3652C25.2741 13.3652 25.5264 13.3099 25.7314 13.1992C25.9398 13.0853 26.0977 12.9388 26.2051 12.7598H27.1035C27.0189 13.0299 26.8773 13.2676 26.6787 13.4727C26.4834 13.6745 26.2393 13.8307 25.9463 13.9414C25.6566 14.0521 25.3327 14.1074 24.9746 14.1074ZM26.332 10.9141C26.332 10.6211 26.2718 10.3574 26.1514 10.123C26.0342 9.88867 25.8665 9.70475 25.6484 9.57129C25.4336 9.43783 25.1829 9.37109 24.8965 9.37109C24.6003 9.37109 24.3366 9.44108 24.1055 9.58105C23.8776 9.72103 23.6969 9.90983 23.5635 10.1475C23.4333 10.3818 23.3584 10.6374 23.3389 10.9141H26.332ZM28.2754 8.69727H29.0859V9.50781H29.1445C29.2389 9.24089 29.4115 9.02604 29.6621 8.86328C29.916 8.69727 30.1992 8.61263 30.5117 8.60938C30.5573 8.60938 30.5931 8.611 30.6191 8.61426C30.6582 8.61426 30.7152 8.61589 30.79 8.61914C30.8649 8.6224 30.9186 8.62565 30.9512 8.62891V9.47852C30.7819 9.43945 30.6126 9.41992 30.4434 9.41992C30.1927 9.41992 29.9665 9.47363 29.7646 9.58105C29.5628 9.68848 29.4033 9.83659 29.2861 10.0254C29.1722 10.2142 29.1152 10.4258 29.1152 10.6602V14H28.2754V8.69727ZM34.3398 14H33.4707L31.5176 8.69727H32.4355L33.8809 12.9062H33.9395L35.3848 8.69727H36.3027L34.3398 14ZM39.2617 14.1074C38.7572 14.1074 38.3177 13.9951 37.9434 13.7705C37.569 13.5459 37.2809 13.2285 37.0791 12.8184C36.8805 12.4082 36.7812 11.9329 36.7812 11.3926C36.7812 10.8522 36.8805 10.3737 37.0791 9.95703C37.2809 9.53711 37.5625 9.21159 37.9238 8.98047C38.2884 8.74609 38.7083 8.62891 39.1836 8.62891C39.584 8.62891 39.9567 8.71842 40.3018 8.89746C40.6468 9.07324 40.9268 9.3597 41.1416 9.75684C41.3597 10.1507 41.4688 10.6569 41.4688 11.2754V11.627H37.6211C37.6341 11.9948 37.7106 12.3089 37.8506 12.5693C37.9938 12.8298 38.1859 13.0283 38.4268 13.165C38.6676 13.2985 38.946 13.3652 39.2617 13.3652C39.5612 13.3652 39.8135 13.3099 40.0186 13.1992C40.2269 13.0853 40.3848 12.9388 40.4922 12.7598H41.3906C41.306 13.0299 41.1644 13.2676 40.9658 13.4727C40.7705 13.6745 40.5264 13.8307 40.2334 13.9414C39.9437 14.0521 39.6198 14.1074 39.2617 14.1074ZM40.6191 10.9141C40.6191 10.6211 40.5589 10.3574 40.4385 10.123C40.3213 9.88867 40.1536 9.70475 39.9355 9.57129C39.7207 9.43783 39.4701 9.37109 39.1836 9.37109C38.8874 9.37109 38.6237 9.44108 38.3926 9.58105C38.1647 9.72103 37.984 9.90983 37.8506 10.1475C37.7204 10.3818 37.6455 10.6374 37.626 10.9141H40.6191ZM42.5625 8.69727H43.373V9.50781H43.4316C43.526 9.24089 43.6986 9.02604 43.9492 8.86328C44.2031 8.69727 44.4863 8.61263 44.7988 8.60938C44.8444 8.60938 44.8802 8.611 44.9062 8.61426C44.9453 8.61426 45.0023 8.61589 45.0771 8.61914C45.152 8.6224 45.2057 8.62565 45.2383 8.62891V9.47852C45.069 9.43945 44.8997 9.41992 44.7305 9.41992C44.4798 9.41992 44.2536 9.47363 44.0518 9.58105C43.8499 9.68848 43.6904 9.83659 43.5732 10.0254C43.4593 10.2142 43.4023 10.4258 43.4023 10.6602V14H42.5625V8.69727Z" fill="#628FD3"/>
</g>
<defs>
<filter id="filter0_d_2799_683" x="0.5" y="0.5" width="69" height="29" filterUnits="userSpaceOnUse" color-interpolation-filters="sRGB">
<feFlood flood-opacity="0" result="BackgroundImageFix"/>
<feColorMatrix in="SourceAlpha" type="matrix" values="0 0 0 0 0 0 0 0 0 0 0 0 0 0 0 0 0 0 127 0" result="hardAlpha"/>
<feOffset dx="4" dy="4"/>
<feGaussianBlur stdDeviation="2"/>
<feComposite in2="hardAlpha" operator="out"/>
<feColorMatrix type="matrix" values="0 0 0 0 0 0 0 0 0 0 0 0 0 0 0 0 0 0 0.1 0"/>
<feBlend mode="normal" in2="BackgroundImageFix" result="effect1_dropShadow_2799_683"/>
<feBlend mode="normal" in="SourceGraphic" in2="effect1_dropShadow_2799_683" result="shape"/>
</filter>
</defs>
</svg>
