<svg width="68" height="28" viewBox="0 0 68 28" fill="none" xmlns="http://www.w3.org/2000/svg">
<g filter="url(#filter0_d_1583_657)">
<rect width="60" height="20" rx="10" fill="#628FD3"/>
<path d="M19.6387 7.70703H20.498C20.4639 6.63281 19.4775 5.83203 18.1055 5.83203C16.7334 5.83203 15.6689 6.61816 15.6738 7.81445C15.6689 8.77148 16.3623 9.33789 17.4707 9.66016L18.3398 9.89453C19.082 10.1045 19.7363 10.3682 19.7363 11.0566C19.7363 11.8281 19.0039 12.3311 18.0273 12.3262C17.1875 12.3311 16.4502 11.9551 16.377 11.1641H15.4785C15.5615 12.3359 16.5039 13.1221 18.0273 13.127C19.668 13.1221 20.5957 12.2285 20.5957 11.0762C20.5957 9.75293 19.3506 9.31836 18.5938 9.12305L17.8906 8.92773C17.3535 8.7959 16.5283 8.51758 16.5234 7.77539C16.5283 7.10156 17.1387 6.61328 18.0762 6.61328C18.9209 6.61328 19.5654 7.01367 19.6387 7.70703ZM23.9746 13.1074C25.0684 13.1123 25.8545 12.5654 26.1035 11.7598H25.2051C25.0098 12.0869 24.6094 12.3652 23.9746 12.3652C23.0322 12.3652 22.3779 11.75 22.334 10.627H26.1816V10.2754C26.1865 8.3125 25.0098 7.62891 23.8965 7.62891C22.4561 7.62891 21.4941 8.76172 21.4941 10.3926C21.4941 12.0186 22.4414 13.1123 23.9746 13.1074ZM22.3389 9.91406C22.3975 9.09375 22.9785 8.37109 23.8965 8.37109C24.7705 8.37109 25.3271 9.03027 25.332 9.91406H22.3389ZM27.2754 13H28.1152V9.66016C28.1152 8.94727 28.6816 8.41992 29.4434 8.41992C29.6631 8.41992 29.8877 8.46387 29.9512 8.47852V7.62891C29.8535 7.61914 29.6387 7.61426 29.5117 7.60938C28.8867 7.61426 28.335 7.9707 28.1445 8.50781H28.0859V7.69727H27.2754V13ZM35.3027 7.69727H34.3848L32.9395 11.9062H32.8809L31.4355 7.69727H30.5176L32.4707 13H33.3398L35.3027 7.69727ZM38.2617 13.1074C39.3555 13.1123 40.1416 12.5654 40.3906 11.7598H39.4922C39.2969 12.0869 38.8965 12.3652 38.2617 12.3652C37.3193 12.3652 36.665 11.75 36.6211 10.627H40.4688V10.2754C40.4736 8.3125 39.2969 7.62891 38.1836 7.62891C36.7432 7.62891 35.7812 8.76172 35.7812 10.3926C35.7812 12.0186 36.7285 13.1123 38.2617 13.1074ZM36.626 9.91406C36.6846 9.09375 37.2656 8.37109 38.1836 8.37109C39.0576 8.37109 39.6143 9.03027 39.6191 9.91406H36.626ZM41.5625 13H42.4023V9.66016C42.4023 8.94727 42.9688 8.41992 43.7305 8.41992C43.9502 8.41992 44.1748 8.46387 44.2383 8.47852V7.62891C44.1406 7.61914 43.9258 7.61426 43.7988 7.60938C43.1738 7.61426 42.6221 7.9707 42.4316 8.50781H42.373V7.69727H41.5625V13Z" fill="white"/>
</g>
<defs>
<filter id="filter0_d_1583_657" x="0" y="0" width="68" height="28" filterUnits="userSpaceOnUse" color-interpolation-filters="sRGB">
<feFlood flood-opacity="0" result="BackgroundImageFix"/>
<feColorMatrix in="SourceAlpha" type="matrix" values="0 0 0 0 0 0 0 0 0 0 0 0 0 0 0 0 0 0 127 0" result="hardAlpha"/>
<feOffset dx="4" dy="4"/>
<feGaussianBlur stdDeviation="2"/>
<feComposite in2="hardAlpha" operator="out"/>
<feColorMatrix type="matrix" values="0 0 0 0 0 0 0 0 0 0 0 0 0 0 0 0 0 0 0.1 0"/>
<feBlend mode="normal" in2="BackgroundImageFix" result="effect1_dropShadow_1583_657"/>
<feBlend mode="normal" in="SourceGraphic" in2="effect1_dropShadow_1583_657" result="shape"/>
</filter>
</defs>
</svg>
