<svg width="16" height="16" viewBox="0 0 16 16" fill="none" xmlns="http://www.w3.org/2000/svg">
<path d="M9.4999 15.5H1.9999C1.59796 15.514 1.20826 15.3604 0.923866 15.0761C0.639477 14.7917 0.485932 14.402 0.4999 14V6.50002C0.485932 6.09808 0.639477 5.70838 0.923866 5.42399C1.20826 5.1396 1.59796 4.98605 1.9999 5.00002H4.9999V2.00002C4.98593 1.59808 5.13948 1.20838 5.42387 0.923988C5.70826 0.639599 6.09796 0.486054 6.4999 0.500022H13.9999C14.4018 0.486054 14.7915 0.639599 15.0759 0.923988C15.3603 1.20838 15.5139 1.59808 15.4999 2.00002V9.50002C15.5136 9.9019 15.36 10.2915 15.0757 10.5758C14.7913 10.8601 14.4018 11.0138 13.9999 11H10.9999V14C11.0136 14.4019 10.86 14.7915 10.5757 15.0758C10.2913 15.3601 9.90178 15.5138 9.4999 15.5ZM1.9999 6.50002V14H9.4999V11H6.4999C6.09802 11.0138 5.70845 10.8601 5.42411 10.5758C5.13977 10.2915 4.98616 9.9019 4.9999 9.50002V6.50002H1.9999ZM6.4999 2.00002V9.50002H13.9999V2.00002H6.4999Z" fill="black"/>
</svg>
