<svg width="62" height="22" viewBox="0 0 62 22" fill="none" xmlns="http://www.w3.org/2000/svg">
<rect x="1" y="1" width="60" height="20" rx="10" stroke="#EC6B77"/>
<path d="M16.7812 14V6.92969H19.0664C19.75 6.92969 20.3376 7.07129 20.8291 7.35449C21.3206 7.63444 21.6966 8.03971 21.957 8.57031C22.2174 9.09766 22.3477 9.72591 22.3477 10.4551C22.3477 11.1908 22.2158 11.8239 21.9521 12.3545C21.6885 12.8851 21.3044 13.292 20.7998 13.5752C20.2952 13.8584 19.6882 14 18.9785 14H16.7812ZM18.9199 13.2188C19.7695 13.2188 20.4092 12.9779 20.8389 12.4961C21.2718 12.0111 21.4883 11.3307 21.4883 10.4551C21.4883 9.88216 21.3955 9.39062 21.21 8.98047C21.0244 8.57031 20.7461 8.25618 20.375 8.03809C20.0039 7.81999 19.5482 7.71094 19.0078 7.71094H17.6602V13.2188H18.9199ZM25.7559 14.1074C25.2513 14.1074 24.8118 13.9951 24.4375 13.7705C24.0632 13.5459 23.7751 13.2285 23.5732 12.8184C23.3747 12.4082 23.2754 11.9329 23.2754 11.3926C23.2754 10.8522 23.3747 10.3737 23.5732 9.95703C23.7751 9.53711 24.0566 9.21159 24.418 8.98047C24.7826 8.74609 25.2025 8.62891 25.6777 8.62891C26.0781 8.62891 26.4508 8.71842 26.7959 8.89746C27.141 9.07324 27.4209 9.3597 27.6357 9.75684C27.8538 10.1507 27.9629 10.6569 27.9629 11.2754V11.627H24.1152C24.1283 11.9948 24.2048 12.3089 24.3447 12.5693C24.488 12.8298 24.68 13.0283 24.9209 13.165C25.1618 13.2985 25.4401 13.3652 25.7559 13.3652C26.0553 13.3652 26.3076 13.3099 26.5127 13.1992C26.721 13.0853 26.8789 12.9388 26.9863 12.7598H27.8848C27.8001 13.0299 27.6585 13.2676 27.46 13.4727C27.2646 13.6745 27.0205 13.8307 26.7275 13.9414C26.4378 14.0521 26.1139 14.1074 25.7559 14.1074ZM27.1133 10.9141C27.1133 10.6211 27.0531 10.3574 26.9326 10.123C26.8154 9.88867 26.6478 9.70475 26.4297 9.57129C26.2148 9.43783 25.9642 9.37109 25.6777 9.37109C25.3815 9.37109 25.1178 9.44108 24.8867 9.58105C24.6589 9.72103 24.4782 9.90983 24.3447 10.1475C24.2145 10.3818 24.1396 10.6374 24.1201 10.9141H27.1133ZM32.0059 10.0742C31.944 9.84635 31.8236 9.66895 31.6445 9.54199C31.4688 9.41178 31.2311 9.34505 30.9316 9.3418C30.7168 9.3418 30.5247 9.3776 30.3555 9.44922C30.1862 9.52083 30.0527 9.61849 29.9551 9.74219C29.8574 9.86263 29.8086 9.99609 29.8086 10.1426C29.8118 10.3184 29.8867 10.4681 30.0332 10.5918C30.1797 10.7122 30.4076 10.8099 30.7168 10.8848L31.5078 11.0801C31.9798 11.1908 32.333 11.3665 32.5674 11.6074C32.8018 11.8451 32.9206 12.1478 32.9238 12.5156C32.9206 12.8249 32.8376 13.0999 32.6748 13.3408C32.512 13.5817 32.2744 13.7705 31.9619 13.9072C31.6494 14.0407 31.2767 14.1074 30.8438 14.1074C30.2513 14.1107 29.7809 13.9837 29.4326 13.7266C29.0843 13.4694 28.8743 13.0983 28.8027 12.6133H29.6816C29.7793 13.1211 30.1536 13.375 30.8047 13.375C31.1921 13.375 31.4964 13.3034 31.7178 13.1602C31.9424 13.0137 32.0547 12.8151 32.0547 12.5645C32.0547 12.3757 31.9847 12.2194 31.8447 12.0957C31.7048 11.972 31.485 11.8743 31.1855 11.8027L30.3848 11.6172C29.9258 11.5098 29.5742 11.334 29.3301 11.0898C29.0892 10.8457 28.9688 10.5462 28.9688 10.1914C28.9688 9.89193 29.0501 9.62337 29.2129 9.38574C29.3789 9.14811 29.61 8.96257 29.9062 8.8291C30.2057 8.69564 30.5475 8.62891 30.9316 8.62891C31.2897 8.62891 31.6055 8.68913 31.8789 8.80957C32.1523 8.93001 32.3688 9.09928 32.5283 9.31738C32.6911 9.53548 32.7904 9.78776 32.8262 10.0742H32.0059ZM34.0176 8.69727H34.8574V14H34.0176V8.69727ZM34.4375 7.81836C34.278 7.81836 34.1396 7.76465 34.0225 7.65723C33.9085 7.5498 33.8516 7.42122 33.8516 7.27148C33.8516 7.11523 33.9069 6.98177 34.0176 6.87109C34.1315 6.76042 34.2682 6.70508 34.4277 6.70508C34.5938 6.70508 34.7354 6.75879 34.8525 6.86621C34.9697 6.97363 35.0299 7.10547 35.0332 7.26172C35.0299 7.41471 34.9697 7.54655 34.8525 7.65723C34.7386 7.76465 34.6003 7.81836 34.4375 7.81836ZM38.3438 16.0996C37.9173 16.0996 37.5397 16.0394 37.2109 15.9189C36.8854 15.7985 36.625 15.6211 36.4297 15.3867C36.2376 15.1556 36.127 14.8789 36.0977 14.5566H36.9766C37.0319 14.8236 37.1784 15.0254 37.416 15.1621C37.6536 15.2988 37.9629 15.3672 38.3438 15.3672C38.8092 15.3672 39.1689 15.2614 39.4229 15.0498C39.68 14.8415 39.8086 14.5241 39.8086 14.0977V13.0234H39.7402C39.6393 13.1862 39.5384 13.3262 39.4375 13.4434C39.3366 13.5605 39.182 13.6696 38.9736 13.7705C38.7686 13.8714 38.5098 13.9219 38.1973 13.9219C37.7643 13.9186 37.377 13.8128 37.0352 13.6045C36.6934 13.3929 36.4248 13.0885 36.2295 12.6914C36.0374 12.291 35.9414 11.819 35.9414 11.2754C35.9414 10.7415 36.0358 10.2744 36.2246 9.87402C36.4167 9.47363 36.6836 9.16602 37.0254 8.95117C37.3704 8.73633 37.7643 8.62891 38.207 8.62891C38.5195 8.62891 38.7783 8.67936 38.9834 8.78027C39.1917 8.88118 39.3415 8.98698 39.4326 9.09766C39.527 9.20508 39.6361 9.35156 39.7598 9.53711H39.8281V8.69727H40.6484V14.1465C40.6484 14.5859 40.5475 14.9521 40.3457 15.2451C40.1471 15.5381 39.8753 15.7529 39.5303 15.8896C39.1852 16.0296 38.7897 16.0996 38.3438 16.0996ZM36.791 11.3047C36.791 11.6758 36.848 12.0013 36.9619 12.2812C37.0791 12.5612 37.2516 12.7793 37.4795 12.9355C37.7074 13.0918 37.9857 13.1699 38.3145 13.1699C38.7962 13.1699 39.1673 13.0072 39.4277 12.6816C39.6914 12.3529 39.8249 11.8939 39.8281 11.3047C39.8249 10.9206 39.7646 10.5853 39.6475 10.2988C39.5335 10.0091 39.3626 9.78451 39.1348 9.625C38.9102 9.46224 38.6367 9.38086 38.3145 9.38086C37.9857 9.38086 37.7057 9.46549 37.4746 9.63477C37.2467 9.80078 37.0758 10.0303 36.9619 10.3232C36.848 10.613 36.791 10.9401 36.791 11.3047ZM42.8262 14H41.9863V8.69727H42.7969V9.52734H42.8652C42.9954 9.24414 43.1891 9.02441 43.4463 8.86816C43.7067 8.70866 44.0306 8.62891 44.418 8.62891C44.7826 8.62891 45.0983 8.70378 45.3652 8.85352C45.6322 9 45.8389 9.22298 45.9854 9.52246C46.1318 9.82194 46.2051 10.1914 46.2051 10.6309V14H45.3652V10.6895C45.3652 10.2793 45.2594 9.95866 45.0479 9.72754C44.8363 9.49642 44.5417 9.38086 44.1641 9.38086C43.9036 9.38086 43.6725 9.43783 43.4707 9.55176C43.2689 9.66243 43.111 9.82682 42.9971 10.0449C42.8831 10.2598 42.8262 10.5169 42.8262 10.8164V14Z" fill="#EC6B77"/>
</svg>