<svg width="60" height="20" viewBox="0 0 60 20" fill="none" xmlns="http://www.w3.org/2000/svg">
<rect width="60" height="20" rx="10" fill="#4C4C4C"/>
<path d="M22.6738 8.69727H23.5137V14H22.6738V8.69727ZM23.0938 7.81836C22.9342 7.81836 22.7959 7.76465 22.6787 7.65723C22.5648 7.5498 22.5078 7.42122 22.5078 7.27148C22.5078 7.11523 22.5632 6.98177 22.6738 6.87109C22.7878 6.76042 22.9245 6.70508 23.084 6.70508C23.25 6.70508 23.3916 6.75879 23.5088 6.86621C23.626 6.97363 23.6862 7.10547 23.6895 7.26172C23.6862 7.41471 23.626 7.54655 23.5088 7.65723C23.3949 7.76465 23.2565 7.81836 23.0938 7.81836ZM30.9355 10.4648C30.9355 11.1973 30.8021 11.8385 30.5352 12.3887C30.2682 12.9355 29.8971 13.3571 29.4219 13.6533C28.9499 13.9495 28.4128 14.0977 27.8105 14.0977C27.2051 14.0977 26.6647 13.9495 26.1895 13.6533C25.7174 13.3571 25.348 12.9355 25.0811 12.3887C24.8174 11.8385 24.6855 11.1973 24.6855 10.4648C24.6855 9.73242 24.8174 9.09277 25.0811 8.5459C25.348 7.99577 25.7174 7.57259 26.1895 7.27637C26.6647 6.98014 27.2051 6.83203 27.8105 6.83203C28.4128 6.83203 28.9499 6.98014 29.4219 7.27637C29.8971 7.57259 30.2682 7.99577 30.5352 8.5459C30.8021 9.09277 30.9355 9.73242 30.9355 10.4648ZM25.5352 10.4648C25.5352 11.054 25.6344 11.5602 25.833 11.9834C26.0316 12.4066 26.3018 12.7272 26.6436 12.9453C26.9886 13.1634 27.3776 13.2741 27.8105 13.2773C28.2435 13.2741 28.6309 13.1634 28.9727 12.9453C29.3177 12.7272 29.5895 12.4066 29.7881 11.9834C29.9867 11.5602 30.0859 11.054 30.0859 10.4648C30.0859 9.8724 29.9867 9.36458 29.7881 8.94141C29.5895 8.51823 29.3177 8.19759 28.9727 7.97949C28.6309 7.76139 28.2435 7.65234 27.8105 7.65234C27.3776 7.65234 26.9886 7.76139 26.6436 7.97949C26.3018 8.19759 26.0316 8.51823 25.833 8.94141C25.6344 9.36458 25.5352 9.8724 25.5352 10.4648ZM36.082 8.70703C36.0592 8.47917 35.9779 8.28385 35.8379 8.12109C35.6979 7.95508 35.514 7.82975 35.2861 7.74512C35.0583 7.65723 34.8027 7.61328 34.5195 7.61328C34.2135 7.61328 33.9434 7.66374 33.709 7.76465C33.4746 7.8623 33.2923 7.99902 33.1621 8.1748C33.0319 8.35059 32.9668 8.55078 32.9668 8.77539C32.9701 9.10417 33.1051 9.35645 33.3721 9.53223C33.639 9.70475 33.9596 9.83659 34.334 9.92773L35.0371 10.123C35.584 10.263 36.0544 10.4779 36.4482 10.7676C36.8421 11.0573 37.0391 11.4935 37.0391 12.0762C37.0391 12.4635 36.9382 12.8135 36.7363 13.126C36.5345 13.4352 36.2399 13.6794 35.8525 13.8584C35.4652 14.0374 35.0046 14.127 34.4707 14.127C33.9694 14.127 33.5316 14.0456 33.1572 13.8828C32.7861 13.7168 32.4948 13.4873 32.2832 13.1943C32.0716 12.8981 31.9512 12.5547 31.9219 12.1641H32.8203C32.8431 12.418 32.931 12.6328 33.084 12.8086C33.237 12.9844 33.4339 13.1162 33.6748 13.2041C33.9189 13.2887 34.1842 13.3294 34.4707 13.3262C34.7962 13.3262 35.0876 13.2741 35.3447 13.1699C35.6051 13.0658 35.8086 12.9176 35.9551 12.7256C36.1048 12.5303 36.1797 12.3073 36.1797 12.0566C36.1797 11.8385 36.1178 11.6562 35.9941 11.5098C35.8737 11.3633 35.7142 11.2445 35.5156 11.1533C35.3171 11.0622 35.0729 10.9759 34.7832 10.8945L33.9141 10.6602C33.3346 10.4909 32.8887 10.2565 32.5762 9.95703C32.2669 9.65755 32.1139 9.27669 32.1172 8.81445C32.1172 8.42383 32.223 8.07878 32.4346 7.7793C32.6462 7.47656 32.9375 7.24382 33.3086 7.08105C33.6797 6.91504 34.0931 6.83203 34.5488 6.83203C34.998 6.83203 35.4017 6.91341 35.7598 7.07617C36.1211 7.23893 36.4059 7.46354 36.6143 7.75C36.8226 8.0332 36.9316 8.35221 36.9414 8.70703H36.082Z" fill="white"/>
</svg>