<svg width="60" height="20" viewBox="0 0 60 20" fill="none" xmlns="http://www.w3.org/2000/svg">
<rect width="60" height="20" rx="10" fill="#EC6B77"/>
<path d="M17.9785 13C20.1318 13 21.3477 11.6621 21.3477 9.45508C21.3477 7.25293 20.1318 5.92969 18.0664 5.92969H15.7812V13H17.9785ZM16.6602 12.2188V6.71094H18.0078C19.6533 6.71094 20.4883 7.74609 20.4883 9.45508C20.4883 11.1689 19.6533 12.2188 17.9199 12.2188H16.6602ZM24.7559 13.1074C25.8496 13.1123 26.6357 12.5654 26.8848 11.7598H25.9863C25.791 12.0869 25.3906 12.3652 24.7559 12.3652C23.8135 12.3652 23.1592 11.75 23.1152 10.627H26.9629V10.2754C26.9678 8.3125 25.791 7.62891 24.6777 7.62891C23.2373 7.62891 22.2754 8.76172 22.2754 10.3926C22.2754 12.0186 23.2227 13.1123 24.7559 13.1074ZM23.1201 9.91406C23.1787 9.09375 23.7598 8.37109 24.6777 8.37109C25.5518 8.37109 26.1084 9.03027 26.1133 9.91406H23.1201ZM31.0059 9.07422H31.8262C31.7188 8.21484 31.0303 7.62891 29.9316 7.62891C28.7646 7.62891 27.9688 8.2832 27.9688 9.19141C27.9688 9.89941 28.4619 10.4023 29.3848 10.6172L30.1855 10.8027C30.7861 10.9443 31.0547 11.1885 31.0547 11.5645C31.0547 12.0625 30.5811 12.3799 29.8242 12.375C29.1553 12.3799 28.7793 12.1309 28.6816 11.6133H27.8027C27.9443 12.5801 28.6523 13.1123 29.8438 13.1074C31.1719 13.1123 31.9189 12.4336 31.9238 11.5156C31.9189 10.7783 31.4551 10.3047 30.5078 10.0801L29.7168 9.88477C29.0967 9.7334 28.8135 9.49414 28.8086 9.14258C28.8135 8.69824 29.2773 8.34668 29.9316 8.3418C30.5518 8.34668 30.8887 8.63477 31.0059 9.07422ZM33.0176 13H33.8574V7.69727H33.0176V13ZM32.8516 6.26172C32.8467 6.56934 33.1152 6.81836 33.4375 6.81836C33.7598 6.81836 34.0283 6.56934 34.0332 6.26172C34.0283 5.94922 33.7598 5.7002 33.4375 5.70508C33.1152 5.7002 32.8467 5.94922 32.8516 6.26172ZM37.3438 15.0996C38.6377 15.0996 39.6436 14.5137 39.6484 13.1465V7.69727H38.8281V8.53711H38.7598C38.5693 8.25391 38.2373 7.62891 37.207 7.62891C35.874 7.62891 34.9414 8.64453 34.9414 10.2754C34.9414 11.9453 35.9082 12.917 37.1973 12.9219C38.2227 12.917 38.5596 12.3164 38.7402 12.0234H38.8086V13.0977C38.8086 13.9717 38.252 14.3672 37.3438 14.3672C36.5918 14.3672 36.0889 14.0986 35.9766 13.5566H35.0977C35.1904 14.5381 36.0596 15.0996 37.3438 15.0996ZM35.791 10.3047C35.791 9.23535 36.2939 8.38086 37.3145 8.38086C38.3008 8.38086 38.8232 9.16699 38.8281 10.3047C38.8232 11.4717 38.2861 12.1699 37.3145 12.1699C36.3086 12.1699 35.791 11.4033 35.791 10.3047ZM41.8262 9.81641C41.8262 8.89844 42.3926 8.38086 43.1641 8.38086C43.916 8.38086 44.3652 8.86914 44.3652 9.68945V13H45.2051V9.63086C45.21 8.2832 44.4922 7.62891 43.418 7.62891C42.6123 7.62891 42.1143 7.98535 41.8652 8.52734H41.7969V7.69727H40.9863V13H41.8262V9.81641Z" fill="white"/>
</svg>
