<svg width="20" height="20" viewBox="0 0 20 20" fill="none" xmlns="http://www.w3.org/2000/svg">
<path d="M10.0162 17.1081C8.07457 17.1081 6.1329 16.7998 4.29123 16.1831C3.59123 15.9414 3.0579 15.4498 2.82457 14.8081C2.5829 14.1664 2.66623 13.4581 3.04957 12.8248L4.0079 11.2331C4.2079 10.8998 4.39123 10.2331 4.39123 9.84144V7.43311C4.39123 4.33311 6.91623 1.80811 10.0162 1.80811C13.1162 1.80811 15.6412 4.33311 15.6412 7.43311V9.84144C15.6412 10.2248 15.8246 10.8998 16.0246 11.2414L16.9746 12.8248C17.3329 13.4248 17.3996 14.1498 17.1579 14.8081C16.9162 15.4664 16.3912 15.9664 15.7329 16.1831C13.8996 16.7998 11.9579 17.1081 10.0162 17.1081ZM10.0162 3.05811C7.6079 3.05811 5.64123 5.01644 5.64123 7.43311V9.84144C5.64123 10.4498 5.39123 11.3498 5.0829 11.8748L4.12457 13.4664C3.94123 13.7748 3.89123 14.0998 3.99957 14.3748C4.09957 14.6581 4.34957 14.8748 4.69123 14.9914C8.17457 16.1581 11.8662 16.1581 15.3496 14.9914C15.6496 14.8914 15.8829 14.6664 15.9912 14.3664C16.0996 14.0664 16.0746 13.7414 15.9079 13.4664L14.9496 11.8748C14.6329 11.3331 14.3912 10.4414 14.3912 9.83311V7.43311C14.3912 5.01644 12.4329 3.05811 10.0162 3.05811Z" fill="black"/>
<path d="M11.5668 3.2834C11.5085 3.2834 11.4502 3.27507 11.3918 3.2584C11.1502 3.19173 10.9168 3.14173 10.6918 3.1084C9.98351 3.01673 9.30018 3.06673 8.65851 3.2584C8.42518 3.3334 8.17518 3.2584 8.01684 3.0834C7.85851 2.9084 7.80851 2.6584 7.90018 2.4334C8.24184 1.5584 9.07518 0.983398 10.0252 0.983398C10.9752 0.983398 11.8085 1.55007 12.1502 2.4334C12.2335 2.6584 12.1918 2.9084 12.0335 3.0834C11.9085 3.21673 11.7335 3.2834 11.5668 3.2834Z" fill="black"/>
<path d="M10.0166 19.0083C9.1916 19.0083 8.3916 18.675 7.80827 18.0916C7.22493 17.5083 6.8916 16.7083 6.8916 15.8833H8.1416C8.1416 16.375 8.3416 16.8583 8.6916 17.2083C9.0416 17.5583 9.52493 17.7583 10.0166 17.7583C11.0499 17.7583 11.8916 16.9166 11.8916 15.8833H13.1416C13.1416 17.6083 11.7416 19.0083 10.0166 19.0083Z" fill="black"/>
</svg>
