<svg width="15" height="15" viewBox="0 0 15 15" fill="none" xmlns="http://www.w3.org/2000/svg">
<path d="M3.92166 3.37795C4.07333 3.37795 4.20054 3.42932 4.30329 3.53207L7.07577 6.30456L9.84418 3.53615C9.94693 3.4334 10.0733 3.38121 10.2234 3.37958C10.3734 3.37795 10.5014 3.43014 10.607 3.53574C10.7126 3.64134 10.7656 3.77018 10.7652 3.92144C10.7652 4.07311 10.7138 4.20032 10.6111 4.30306L7.84269 7.07148L10.6111 9.83989C10.7138 9.94263 10.7652 10.0698 10.7652 10.2215C10.7652 10.3732 10.7126 10.5016 10.607 10.6072C10.5014 10.7128 10.3734 10.765 10.2234 10.7634C10.0733 10.7617 9.94693 10.7096 9.84418 10.6068L7.07577 7.83839L4.30329 10.6109C4.20054 10.7136 4.07333 10.765 3.92166 10.765C3.76999 10.765 3.64156 10.7124 3.53596 10.6068C3.43036 10.5012 3.37817 10.3732 3.3798 10.2231C3.38143 10.0731 3.43362 9.94671 3.53637 9.84396L6.30885 7.07148L3.53596 4.29858C3.43321 4.19583 3.38103 4.06944 3.37939 3.9194C3.37776 3.76936 3.42995 3.64134 3.53555 3.53574C3.64115 3.43014 3.76999 3.37714 3.92125 3.37754L3.92166 3.37795Z" fill="white"/>
</svg>
