<svg width="60" height="20" viewBox="0 0 60 20" fill="none" xmlns="http://www.w3.org/2000/svg">
<rect width="60" height="20" rx="10" fill="#F19F62"/>
<path d="M20.1562 6.92969H21.0449L22.5195 12.6523H22.5879L24.082 6.92969H25.0684L26.5723 12.6523H26.6309L28.1055 6.92969H28.9941L27.0605 14H26.1523L24.6094 8.4043H24.5508L22.998 14H22.0898L20.1562 6.92969ZM31.543 14.1074C31.0384 14.1074 30.599 13.9951 30.2246 13.7705C29.8503 13.5459 29.5622 13.2285 29.3604 12.8184C29.1618 12.4082 29.0625 11.9329 29.0625 11.3926C29.0625 10.8522 29.1618 10.3737 29.3604 9.95703C29.5622 9.53711 29.8438 9.21159 30.2051 8.98047C30.5697 8.74609 30.9896 8.62891 31.4648 8.62891C31.8652 8.62891 32.238 8.71842 32.583 8.89746C32.9281 9.07324 33.208 9.3597 33.4229 9.75684C33.641 10.1507 33.75 10.6569 33.75 11.2754V11.627H29.9023C29.9154 11.9948 29.9919 12.3089 30.1318 12.5693C30.2751 12.8298 30.4671 13.0283 30.708 13.165C30.9489 13.2985 31.2272 13.3652 31.543 13.3652C31.8424 13.3652 32.0947 13.3099 32.2998 13.1992C32.5081 13.0853 32.666 12.9388 32.7734 12.7598H33.6719C33.5872 13.0299 33.4456 13.2676 33.2471 13.4727C33.0518 13.6745 32.8076 13.8307 32.5146 13.9414C32.2249 14.0521 31.901 14.1074 31.543 14.1074ZM32.9004 10.9141C32.9004 10.6211 32.8402 10.3574 32.7197 10.123C32.6025 9.88867 32.4349 9.70475 32.2168 9.57129C32.002 9.43783 31.7513 9.37109 31.4648 9.37109C31.1686 9.37109 30.9049 9.44108 30.6738 9.58105C30.446 9.72103 30.2653 9.90983 30.1318 10.1475C30.0016 10.3818 29.9268 10.6374 29.9072 10.9141H32.9004ZM34.9512 6.92969H35.791V9.53711H35.8594C35.9766 9.35482 36.0807 9.20996 36.1719 9.10254C36.263 8.99186 36.4111 8.88607 36.6162 8.78516C36.8213 8.68099 37.0801 8.62891 37.3926 8.62891C37.8353 8.62891 38.2275 8.74121 38.5693 8.96582C38.9111 9.18717 39.1781 9.50456 39.3701 9.91797C39.5622 10.3314 39.6582 10.8132 39.6582 11.3633C39.6582 11.9167 39.5622 12.4017 39.3701 12.8184C39.1781 13.2318 38.9111 13.5508 38.5693 13.7754C38.2275 13.9967 37.8385 14.1074 37.4023 14.1074C37.0931 14.1074 36.8343 14.057 36.626 13.9561C36.4209 13.8551 36.2679 13.7445 36.167 13.624C36.0661 13.5036 35.9635 13.3587 35.8594 13.1895H35.7617V14H34.9512V6.92969ZM35.7715 11.3438C35.7715 11.7441 35.8301 12.0957 35.9473 12.3984C36.0645 12.7012 36.2354 12.9372 36.46 13.1064C36.6878 13.2725 36.9596 13.3555 37.2754 13.3555C37.6009 13.3555 37.8792 13.2676 38.1104 13.0918C38.3415 12.916 38.514 12.6768 38.6279 12.374C38.7451 12.0713 38.8053 11.7279 38.8086 11.3438C38.8053 10.9661 38.7467 10.6292 38.6328 10.333C38.5189 10.0368 38.3464 9.80404 38.1152 9.63477C37.8874 9.46549 37.6074 9.38086 37.2754 9.38086C36.9564 9.38086 36.6829 9.46224 36.4551 9.625C36.2305 9.78776 36.0596 10.0173 35.9424 10.3135C35.8285 10.6064 35.7715 10.9499 35.7715 11.3438Z" fill="white"/>
</svg>
