<svg width="83" height="35" viewBox="0 0 83 35" fill="none" xmlns="http://www.w3.org/2000/svg">
<rect width="78.0488" height="35" rx="17.5" fill="#35C174"/>
<path d="M12.0439 22.75L15.9258 12.1445H17.3174L21.1992 22.75H19.8076L18.7456 19.7617H14.4829L13.4209 22.75H12.0439ZM18.3428 18.6045L16.6582 13.8584H16.5703L14.8857 18.6045H18.3428ZM23.7334 22.75H22.4736V14.7959H23.6895V16.041H23.792C23.9873 15.6162 24.2778 15.2866 24.6636 15.0522C25.0542 14.813 25.54 14.6934 26.1211 14.6934C26.668 14.6934 27.1416 14.8057 27.542 15.0303C27.9424 15.25 28.2524 15.5845 28.4722 16.0337C28.6919 16.4829 28.8018 17.0371 28.8018 17.6963V22.75H27.542V17.7842C27.542 17.1689 27.3833 16.688 27.0659 16.3413C26.7485 15.9946 26.3066 15.8213 25.7402 15.8213C25.3496 15.8213 25.0029 15.9067 24.7002 16.0776C24.3975 16.2437 24.1606 16.4902 23.9897 16.8174C23.8188 17.1396 23.7334 17.5254 23.7334 17.9746V22.75ZM33.8262 22.9111C33.167 22.9111 32.5811 22.7451 32.0684 22.4131C31.5557 22.0762 31.1553 21.5977 30.8672 20.9775C30.584 20.3525 30.4424 19.625 30.4424 18.7949C30.4424 17.9697 30.584 17.2471 30.8672 16.627C31.1553 16.0068 31.5557 15.5308 32.0684 15.1987C32.5859 14.8618 33.1768 14.6934 33.8408 14.6934C34.3096 14.6934 34.6978 14.7715 35.0054 14.9277C35.313 15.0791 35.5352 15.2378 35.6719 15.4038C35.8135 15.5698 35.9697 15.7871 36.1406 16.0557H36.2285V12.1445H37.5029V22.75H36.2725V21.5342H36.1406C35.9746 21.793 35.8159 22.0127 35.6646 22.1934C35.5181 22.3691 35.2886 22.5327 34.9761 22.6841C34.6685 22.8354 34.2852 22.9111 33.8262 22.9111ZM31.7168 18.7656C31.7168 19.3418 31.8022 19.8569 31.9731 20.311C32.1489 20.7651 32.4077 21.124 32.7495 21.3877C33.0962 21.6514 33.5137 21.7832 34.002 21.7832C34.4805 21.7832 34.8882 21.6587 35.2251 21.4097C35.5669 21.1558 35.8257 20.8018 36.0015 20.3477C36.1772 19.8936 36.2676 19.3662 36.2725 18.7656C36.2676 18.1748 36.1772 17.6572 36.0015 17.2129C35.8306 16.7686 35.5742 16.4268 35.2324 16.1875C34.8955 15.9434 34.4854 15.8213 34.002 15.8213C33.5088 15.8213 33.0889 15.9482 32.7422 16.2021C32.4004 16.4561 32.144 16.8052 31.9731 17.2495C31.8022 17.6938 31.7168 18.1992 31.7168 18.7656ZM39.6855 14.7959H40.9014V16.0117H40.9893C41.1309 15.6113 41.3896 15.2891 41.7656 15.0449C42.1465 14.7959 42.5713 14.6689 43.04 14.6641C43.1084 14.6641 43.1621 14.6665 43.2012 14.6714C43.2598 14.6714 43.3452 14.6738 43.4575 14.6787C43.5698 14.6836 43.6504 14.6885 43.6992 14.6934V15.9678C43.4453 15.9092 43.1914 15.8799 42.9375 15.8799C42.5615 15.8799 42.2222 15.9604 41.9194 16.1216C41.6167 16.2827 41.3774 16.5049 41.2017 16.7881C41.0308 17.0713 40.9453 17.3887 40.9453 17.7402V22.75H39.6855V14.7959ZM47.918 22.9111C47.2002 22.9111 46.5654 22.7427 46.0137 22.4058C45.4668 22.064 45.042 21.583 44.7393 20.9629C44.4365 20.3428 44.2852 19.625 44.2852 18.8096C44.2852 17.9893 44.4365 17.269 44.7393 16.6489C45.042 16.0288 45.4668 15.5479 46.0137 15.2061C46.5654 14.8643 47.2002 14.6934 47.918 14.6934C48.6309 14.6934 49.2607 14.8643 49.8076 15.2061C50.3545 15.5479 50.7769 16.0288 51.0747 16.6489C51.3726 17.269 51.5215 17.9893 51.5215 18.8096C51.5215 19.625 51.3726 20.3428 51.0747 20.9629C50.7769 21.583 50.3545 22.064 49.8076 22.4058C49.2607 22.7427 48.6309 22.9111 47.918 22.9111ZM45.5449 18.8096C45.5498 19.3564 45.6377 19.8569 45.8086 20.311C45.9844 20.7651 46.2505 21.1265 46.6069 21.395C46.9634 21.6636 47.4004 21.7979 47.918 21.7979C48.4307 21.7979 48.8628 21.6636 49.2144 21.395C49.5659 21.1265 49.8271 20.7651 49.998 20.311C50.1738 19.8569 50.2617 19.3564 50.2617 18.8096C50.2617 18.2627 50.1738 17.7622 49.998 17.3081C49.8271 16.854 49.5659 16.4902 49.2144 16.2168C48.8628 15.9434 48.4307 15.8066 47.918 15.8066C47.4004 15.8066 46.9634 15.9434 46.6069 16.2168C46.2505 16.4902 45.9844 16.854 45.8086 17.3081C45.6377 17.7622 45.5498 18.2627 45.5449 18.8096ZM53.1768 14.7959H54.4365V22.75H53.1768V14.7959ZM53.8066 13.4775C53.5674 13.4775 53.3599 13.397 53.1841 13.2358C53.0132 13.0747 52.9277 12.8818 52.9277 12.6572C52.9277 12.4229 53.0107 12.2227 53.1768 12.0566C53.3477 11.8906 53.5527 11.8076 53.792 11.8076C54.041 11.8076 54.2534 11.8882 54.4292 12.0493C54.605 12.2104 54.6953 12.4082 54.7002 12.6426C54.6953 12.8721 54.605 13.0698 54.4292 13.2358C54.2583 13.397 54.0508 13.4775 53.8066 13.4775ZM59.4463 22.9111C58.7871 22.9111 58.2012 22.7451 57.6885 22.4131C57.1758 22.0762 56.7754 21.5977 56.4873 20.9775C56.2041 20.3525 56.0625 19.625 56.0625 18.7949C56.0625 17.9697 56.2041 17.2471 56.4873 16.627C56.7754 16.0068 57.1758 15.5308 57.6885 15.1987C58.2061 14.8618 58.7969 14.6934 59.4609 14.6934C59.9297 14.6934 60.3179 14.7715 60.6255 14.9277C60.9331 15.0791 61.1553 15.2378 61.292 15.4038C61.4336 15.5698 61.5898 15.7871 61.7607 16.0557H61.8486V12.1445H63.123V22.75H61.8926V21.5342H61.7607C61.5947 21.793 61.436 22.0127 61.2847 22.1934C61.1382 22.3691 60.9087 22.5327 60.5962 22.6841C60.2886 22.8354 59.9053 22.9111 59.4463 22.9111ZM57.3369 18.7656C57.3369 19.3418 57.4224 19.8569 57.5933 20.311C57.769 20.7651 58.0278 21.124 58.3696 21.3877C58.7163 21.6514 59.1338 21.7832 59.6221 21.7832C60.1006 21.7832 60.5083 21.6587 60.8452 21.4097C61.187 21.1558 61.4458 20.8018 61.6216 20.3477C61.7974 19.8936 61.8877 19.3662 61.8926 18.7656C61.8877 18.1748 61.7974 17.6572 61.6216 17.2129C61.4507 16.7686 61.1943 16.4268 60.8525 16.1875C60.5156 15.9434 60.1055 15.8213 59.6221 15.8213C59.1289 15.8213 58.709 15.9482 58.3623 16.2021C58.0205 16.4561 57.7642 16.8052 57.5933 17.2495C57.4224 17.6938 57.3369 18.1992 57.3369 18.7656Z" fill="white"/>
</svg>
