<svg width="83" height="35" viewBox="0 0 83 35" fill="none" xmlns="http://www.w3.org/2000/svg">
<rect width="83" height="35" rx="17.5" fill="#D83F67"/>
<rect width="83" height="35" rx="17.5" fill="#D83F67"/>
<path d="M22.4678 22C25.6978 22 27.5215 19.9932 27.5215 16.6826C27.5215 13.3794 25.6978 11.3945 22.5996 11.3945H19.1719V22H22.4678ZM20.4902 20.8281V12.5664H22.5117C24.98 12.5664 26.2324 14.1191 26.2324 16.6826C26.2324 19.2534 24.98 20.8281 22.3799 20.8281H20.4902ZM32.6338 22.1611C34.2744 22.1685 35.4536 21.3481 35.8271 20.1396H34.4795C34.1865 20.6304 33.5859 21.0479 32.6338 21.0479C31.2202 21.0479 30.2388 20.125 30.1729 18.4404H35.9443V17.9131C35.9517 14.9688 34.1865 13.9434 32.5166 13.9434C30.356 13.9434 28.9131 15.6426 28.9131 18.0889C28.9131 20.5278 30.334 22.1685 32.6338 22.1611ZM30.1802 17.3711C30.2681 16.1406 31.1396 15.0566 32.5166 15.0566C33.8276 15.0566 34.6626 16.0454 34.6699 17.3711H30.1802ZM42.0088 16.1113H43.2393C43.0781 14.8223 42.0454 13.9434 40.3975 13.9434C38.647 13.9434 37.4531 14.9248 37.4531 16.2871C37.4531 17.3491 38.1929 18.1035 39.5771 18.4258L40.7783 18.7041C41.6792 18.9165 42.082 19.2827 42.082 19.8467C42.082 20.5938 41.3716 21.0698 40.2363 21.0625C39.2329 21.0698 38.6689 20.6963 38.5225 19.9199H37.2041C37.4165 21.3701 38.4785 22.1685 40.2656 22.1611C42.2578 22.1685 43.3784 21.1504 43.3857 19.7734C43.3784 18.6675 42.6826 17.957 41.2617 17.6201L40.0752 17.3271C39.145 17.1001 38.7202 16.7412 38.7129 16.2139C38.7202 15.5474 39.416 15.02 40.3975 15.0127C41.3276 15.02 41.833 15.4521 42.0088 16.1113ZM45.0264 22H46.2861V14.0459H45.0264V22ZM44.7773 11.8926C44.77 12.354 45.1729 12.7275 45.6562 12.7275C46.1396 12.7275 46.5425 12.354 46.5498 11.8926C46.5425 11.4238 46.1396 11.0503 45.6562 11.0576C45.1729 11.0503 44.77 11.4238 44.7773 11.8926ZM51.5156 25.1494C53.4565 25.1494 54.9653 24.2705 54.9727 22.2197V14.0459H53.7422V15.3057H53.6396C53.354 14.8809 52.856 13.9434 51.3105 13.9434C49.311 13.9434 47.9121 15.4668 47.9121 17.9131C47.9121 20.418 49.3623 21.8755 51.2959 21.8828C52.834 21.8755 53.3394 20.9746 53.6104 20.5352H53.7129V22.1465C53.7129 23.4575 52.8779 24.0508 51.5156 24.0508C50.3877 24.0508 49.6333 23.6479 49.4648 22.835H48.1465C48.2856 24.3071 49.5894 25.1494 51.5156 25.1494ZM49.1865 17.957C49.1865 16.353 49.9409 15.0713 51.4717 15.0713C52.9512 15.0713 53.7349 16.2505 53.7422 17.957C53.7349 19.7075 52.9292 20.7549 51.4717 20.7549C49.9629 20.7549 49.1865 19.605 49.1865 17.957ZM58.2393 17.2246C58.2393 15.8477 59.0889 15.0713 60.2461 15.0713C61.374 15.0713 62.0479 15.8037 62.0479 17.0342V22H63.3076V16.9463C63.3149 14.9248 62.2383 13.9434 60.627 13.9434C59.4185 13.9434 58.6714 14.478 58.2979 15.291H58.1953V14.0459H56.9795V22H58.2393V17.2246Z" fill="white"/>
</svg>
