<svg width="83" height="35" viewBox="0 0 83 35" fill="none" xmlns="http://www.w3.org/2000/svg">
<rect width="83" height="35" rx="17.5" fill="#4C4C4C"/>
<path d="M31.0107 14.0459H32.2705V22H31.0107V14.0459ZM31.6406 12.7275C31.4014 12.7275 31.1938 12.647 31.0181 12.4858C30.8472 12.3247 30.7617 12.1318 30.7617 11.9072C30.7617 11.6729 30.8447 11.4727 31.0107 11.3066C31.1816 11.1406 31.3867 11.0576 31.626 11.0576C31.875 11.0576 32.0874 11.1382 32.2632 11.2993C32.439 11.4604 32.5293 11.6582 32.5342 11.8926C32.5293 12.1221 32.439 12.3198 32.2632 12.4858C32.0923 12.647 31.8848 12.7275 31.6406 12.7275ZM43.4033 16.6973C43.4033 17.7959 43.2031 18.7578 42.8027 19.583C42.4023 20.4033 41.8457 21.0356 41.1328 21.48C40.4248 21.9243 39.6191 22.1465 38.7158 22.1465C37.8076 22.1465 36.9971 21.9243 36.2842 21.48C35.5762 21.0356 35.022 20.4033 34.6216 19.583C34.2261 18.7578 34.0283 17.7959 34.0283 16.6973C34.0283 15.5986 34.2261 14.6392 34.6216 13.8188C35.022 12.9937 35.5762 12.3589 36.2842 11.9146C36.9971 11.4702 37.8076 11.248 38.7158 11.248C39.6191 11.248 40.4248 11.4702 41.1328 11.9146C41.8457 12.3589 42.4023 12.9937 42.8027 13.8188C43.2031 14.6392 43.4033 15.5986 43.4033 16.6973ZM35.3027 16.6973C35.3027 17.5811 35.4517 18.3403 35.7495 18.9751C36.0474 19.6099 36.4526 20.0908 36.9653 20.418C37.4829 20.7451 38.0664 20.9111 38.7158 20.916C39.3652 20.9111 39.9463 20.7451 40.459 20.418C40.9766 20.0908 41.3843 19.6099 41.6821 18.9751C41.98 18.3403 42.1289 17.5811 42.1289 16.6973C42.1289 15.8086 41.98 15.0469 41.6821 14.4121C41.3843 13.7773 40.9766 13.2964 40.459 12.9692C39.9463 12.6421 39.3652 12.4785 38.7158 12.4785C38.0664 12.4785 37.4829 12.6421 36.9653 12.9692C36.4526 13.2964 36.0474 13.7773 35.7495 14.4121C35.4517 15.0469 35.3027 15.8086 35.3027 16.6973ZM51.123 14.0605C51.0889 13.7188 50.9668 13.4258 50.7568 13.1816C50.5469 12.9326 50.271 12.7446 49.9292 12.6177C49.5874 12.4858 49.2041 12.4199 48.7793 12.4199C48.3203 12.4199 47.915 12.4956 47.5635 12.647C47.2119 12.7935 46.9385 12.9985 46.7432 13.2622C46.5479 13.5259 46.4502 13.8262 46.4502 14.1631C46.4551 14.6562 46.6577 15.0347 47.0581 15.2983C47.4585 15.5571 47.9395 15.7549 48.501 15.8916L49.5557 16.1846C50.376 16.3945 51.0815 16.7168 51.6724 17.1514C52.2632 17.5859 52.5586 18.2402 52.5586 19.1143C52.5586 19.6953 52.4072 20.2202 52.1045 20.689C51.8018 21.1528 51.3599 21.519 50.7788 21.7876C50.1978 22.0562 49.5068 22.1904 48.7061 22.1904C47.9541 22.1904 47.2974 22.0684 46.7358 21.8242C46.1792 21.5752 45.7422 21.231 45.4248 20.7915C45.1074 20.3472 44.9268 19.832 44.8828 19.2461H46.2305C46.2646 19.627 46.3965 19.9492 46.626 20.2129C46.8555 20.4766 47.1509 20.6743 47.5122 20.8062C47.8784 20.9331 48.2764 20.9941 48.7061 20.9893C49.1943 20.9893 49.6313 20.9111 50.0171 20.7549C50.4077 20.5986 50.7129 20.3765 50.9326 20.0884C51.1572 19.7954 51.2695 19.4609 51.2695 19.085C51.2695 18.7578 51.1768 18.4844 50.9912 18.2646C50.8105 18.0449 50.5713 17.8667 50.2734 17.73C49.9756 17.5933 49.6094 17.4639 49.1748 17.3418L47.8711 16.9902C47.002 16.7363 46.333 16.3848 45.8643 15.9355C45.4004 15.4863 45.1709 14.915 45.1758 14.2217C45.1758 13.6357 45.3345 13.1182 45.6519 12.6689C45.9692 12.2148 46.4062 11.8657 46.9629 11.6216C47.5195 11.3726 48.1396 11.248 48.8232 11.248C49.4971 11.248 50.1025 11.3701 50.6396 11.6143C51.1816 11.8584 51.6089 12.1953 51.9214 12.625C52.2339 13.0498 52.3975 13.5283 52.4121 14.0605H51.123Z" fill="white"/>
</svg>
