<svg width="83" height="35" viewBox="0 0 83 35" fill="none" xmlns="http://www.w3.org/2000/svg">
<rect width="83" height="35" rx="17.5" fill="#3E89DB"/>
<path d="M27.958 14.0605C27.9238 13.7188 27.8018 13.4258 27.5918 13.1816C27.3818 12.9326 27.106 12.7446 26.7642 12.6177C26.4224 12.4858 26.0391 12.4199 25.6143 12.4199C25.1553 12.4199 24.75 12.4956 24.3984 12.647C24.0469 12.7935 23.7734 12.9985 23.5781 13.2622C23.3828 13.5259 23.2852 13.8262 23.2852 14.1631C23.29 14.6562 23.4927 15.0347 23.8931 15.2983C24.2935 15.5571 24.7744 15.7549 25.3359 15.8916L26.3906 16.1846C27.2109 16.3945 27.9165 16.7168 28.5073 17.1514C29.0981 17.5859 29.3936 18.2402 29.3936 19.1143C29.3936 19.6953 29.2422 20.2202 28.9395 20.689C28.6367 21.1528 28.1948 21.519 27.6138 21.7876C27.0327 22.0562 26.3418 22.1904 25.541 22.1904C24.7891 22.1904 24.1323 22.0684 23.5708 21.8242C23.0142 21.5752 22.5771 21.231 22.2598 20.7915C21.9424 20.3472 21.7617 19.832 21.7178 19.2461H23.0654C23.0996 19.627 23.2314 19.9492 23.4609 20.2129C23.6904 20.4766 23.9858 20.6743 24.3472 20.8062C24.7134 20.9331 25.1113 20.9941 25.541 20.9893C26.0293 20.9893 26.4663 20.9111 26.8521 20.7549C27.2427 20.5986 27.5479 20.3765 27.7676 20.0884C27.9922 19.7954 28.1045 19.4609 28.1045 19.085C28.1045 18.7578 28.0117 18.4844 27.8262 18.2646C27.6455 18.0449 27.4062 17.8667 27.1084 17.73C26.8105 17.5933 26.4443 17.4639 26.0098 17.3418L24.7061 16.9902C23.8369 16.7363 23.168 16.3848 22.6992 15.9355C22.2354 15.4863 22.0059 14.915 22.0107 14.2217C22.0107 13.6357 22.1694 13.1182 22.4868 12.6689C22.8042 12.2148 23.2412 11.8657 23.7979 11.6216C24.3545 11.3726 24.9746 11.248 25.6582 11.248C26.332 11.248 26.9375 11.3701 27.4746 11.6143C28.0166 11.8584 28.4438 12.1953 28.7563 12.625C29.0688 13.0498 29.2324 13.5283 29.2471 14.0605H27.958ZM34.4619 22.1611C33.7051 22.1611 33.0459 21.9927 32.4844 21.6558C31.9229 21.3188 31.4907 20.8428 31.188 20.2275C30.8901 19.6123 30.7412 18.8994 30.7412 18.0889C30.7412 17.2783 30.8901 16.5605 31.188 15.9355C31.4907 15.3057 31.9131 14.8174 32.4551 14.4707C33.002 14.1191 33.6318 13.9434 34.3447 13.9434C34.9453 13.9434 35.5044 14.0776 36.022 14.3462C36.5396 14.6099 36.9595 15.0396 37.2817 15.6353C37.6089 16.2261 37.7725 16.9854 37.7725 17.9131V18.4404H32.001C32.0205 18.9922 32.1353 19.4634 32.3452 19.854C32.5601 20.2446 32.8481 20.5425 33.2095 20.7476C33.5708 20.9478 33.9883 21.0479 34.4619 21.0479C34.9111 21.0479 35.2896 20.9648 35.5972 20.7988C35.9097 20.6279 36.1465 20.4082 36.3076 20.1396H37.6553C37.5283 20.5449 37.3159 20.9014 37.0181 21.209C36.7251 21.5117 36.3589 21.7461 35.9194 21.9121C35.4849 22.0781 34.999 22.1611 34.4619 22.1611ZM36.498 17.3711C36.498 16.9316 36.4077 16.5361 36.2271 16.1846C36.0513 15.833 35.7998 15.5571 35.4727 15.3569C35.1504 15.1567 34.7744 15.0566 34.3447 15.0566C33.9004 15.0566 33.5049 15.1616 33.1582 15.3716C32.8164 15.5815 32.5454 15.8647 32.3452 16.2212C32.1499 16.5728 32.0376 16.9561 32.0083 17.3711H36.498ZM39.4131 14.0459H40.6289V15.2617H40.7168C40.8584 14.8613 41.1172 14.5391 41.4932 14.2949C41.874 14.0459 42.2988 13.9189 42.7676 13.9141C42.8359 13.9141 42.8896 13.9165 42.9287 13.9214C42.9873 13.9214 43.0728 13.9238 43.1851 13.9287C43.2974 13.9336 43.3779 13.9385 43.4268 13.9434V15.2178C43.1729 15.1592 42.9189 15.1299 42.665 15.1299C42.2891 15.1299 41.9497 15.2104 41.647 15.3716C41.3442 15.5327 41.105 15.7549 40.9292 16.0381C40.7583 16.3213 40.6729 16.6387 40.6729 16.9902V22H39.4131V14.0459ZM48.5098 22H47.2061L44.2764 14.0459H45.6533L47.8213 20.3594H47.9092L50.0771 14.0459H51.4541L48.5098 22ZM55.8926 22.1611C55.1357 22.1611 54.4766 21.9927 53.915 21.6558C53.3535 21.3188 52.9214 20.8428 52.6187 20.2275C52.3208 19.6123 52.1719 18.8994 52.1719 18.0889C52.1719 17.2783 52.3208 16.5605 52.6187 15.9355C52.9214 15.3057 53.3438 14.8174 53.8857 14.4707C54.4326 14.1191 55.0625 13.9434 55.7754 13.9434C56.376 13.9434 56.9351 14.0776 57.4526 14.3462C57.9702 14.6099 58.3901 15.0396 58.7124 15.6353C59.0396 16.2261 59.2031 16.9854 59.2031 17.9131V18.4404H53.4316C53.4512 18.9922 53.5659 19.4634 53.7759 19.854C53.9907 20.2446 54.2788 20.5425 54.6401 20.7476C55.0015 20.9478 55.4189 21.0479 55.8926 21.0479C56.3418 21.0479 56.7202 20.9648 57.0278 20.7988C57.3403 20.6279 57.5771 20.4082 57.7383 20.1396H59.0859C58.959 20.5449 58.7466 20.9014 58.4487 21.209C58.1558 21.5117 57.7896 21.7461 57.3501 21.9121C56.9155 22.0781 56.4297 22.1611 55.8926 22.1611ZM57.9287 17.3711C57.9287 16.9316 57.8384 16.5361 57.6577 16.1846C57.4819 15.833 57.2305 15.5571 56.9033 15.3569C56.5811 15.1567 56.2051 15.0566 55.7754 15.0566C55.3311 15.0566 54.9355 15.1616 54.5889 15.3716C54.2471 15.5815 53.9761 15.8647 53.7759 16.2212C53.5806 16.5728 53.4683 16.9561 53.439 17.3711H57.9287ZM60.8438 14.0459H62.0596V15.2617H62.1475C62.2891 14.8613 62.5479 14.5391 62.9238 14.2949C63.3047 14.0459 63.7295 13.9189 64.1982 13.9141C64.2666 13.9141 64.3203 13.9165 64.3594 13.9214C64.418 13.9214 64.5034 13.9238 64.6157 13.9287C64.728 13.9336 64.8086 13.9385 64.8574 13.9434V15.2178C64.6035 15.1592 64.3496 15.1299 64.0957 15.1299C63.7197 15.1299 63.3804 15.2104 63.0776 15.3716C62.7749 15.5327 62.5356 15.7549 62.3599 16.0381C62.189 16.3213 62.1035 16.6387 62.1035 16.9902V22H60.8438V14.0459Z" fill="white"/>
</svg>
