<svg width="70" height="30" viewBox="0 0 70 30" fill="none" xmlns="http://www.w3.org/2000/svg">
<g filter="url(#filter0_d_1706_898)">
<rect x="1" y="1" width="60" height="20" rx="10" stroke="#858585"/>
<path d="M21.1562 7.92969H22.0449L23.5195 13.6523H23.5879L25.082 7.92969H26.0684L27.5723 13.6523H27.6309L29.1055 7.92969H29.9941L28.0605 15H27.1523L25.6094 9.4043H25.5508L23.998 15H23.0898L21.1562 7.92969ZM32.543 15.1074C32.0384 15.1074 31.599 14.9951 31.2246 14.7705C30.8503 14.5459 30.5622 14.2285 30.3604 13.8184C30.1618 13.4082 30.0625 12.9329 30.0625 12.3926C30.0625 11.8522 30.1618 11.3737 30.3604 10.957C30.5622 10.5371 30.8438 10.2116 31.2051 9.98047C31.5697 9.74609 31.9896 9.62891 32.4648 9.62891C32.8652 9.62891 33.238 9.71842 33.583 9.89746C33.9281 10.0732 34.208 10.3597 34.4229 10.7568C34.641 11.1507 34.75 11.6569 34.75 12.2754V12.627H30.9023C30.9154 12.9948 30.9919 13.3089 31.1318 13.5693C31.2751 13.8298 31.4671 14.0283 31.708 14.165C31.9489 14.2985 32.2272 14.3652 32.543 14.3652C32.8424 14.3652 33.0947 14.3099 33.2998 14.1992C33.5081 14.0853 33.666 13.9388 33.7734 13.7598H34.6719C34.5872 14.0299 34.4456 14.2676 34.2471 14.4727C34.0518 14.6745 33.8076 14.8307 33.5146 14.9414C33.2249 15.0521 32.901 15.1074 32.543 15.1074ZM33.9004 11.9141C33.9004 11.6211 33.8402 11.3574 33.7197 11.123C33.6025 10.8887 33.4349 10.7048 33.2168 10.5713C33.002 10.4378 32.7513 10.3711 32.4648 10.3711C32.1686 10.3711 31.9049 10.4411 31.6738 10.5811C31.446 10.721 31.2653 10.9098 31.1318 11.1475C31.0016 11.3818 30.9268 11.6374 30.9072 11.9141H33.9004ZM35.9512 7.92969H36.791V10.5371H36.8594C36.9766 10.3548 37.0807 10.21 37.1719 10.1025C37.263 9.99186 37.4111 9.88607 37.6162 9.78516C37.8213 9.68099 38.0801 9.62891 38.3926 9.62891C38.8353 9.62891 39.2275 9.74121 39.5693 9.96582C39.9111 10.1872 40.1781 10.5046 40.3701 10.918C40.5622 11.3314 40.6582 11.8132 40.6582 12.3633C40.6582 12.9167 40.5622 13.4017 40.3701 13.8184C40.1781 14.2318 39.9111 14.5508 39.5693 14.7754C39.2275 14.9967 38.8385 15.1074 38.4023 15.1074C38.0931 15.1074 37.8343 15.057 37.626 14.9561C37.4209 14.8551 37.2679 14.7445 37.167 14.624C37.0661 14.5036 36.9635 14.3587 36.8594 14.1895H36.7617V15H35.9512V7.92969ZM36.7715 12.3438C36.7715 12.7441 36.8301 13.0957 36.9473 13.3984C37.0645 13.7012 37.2354 13.9372 37.46 14.1064C37.6878 14.2725 37.9596 14.3555 38.2754 14.3555C38.6009 14.3555 38.8792 14.2676 39.1104 14.0918C39.3415 13.916 39.514 13.6768 39.6279 13.374C39.7451 13.0713 39.8053 12.7279 39.8086 12.3438C39.8053 11.9661 39.7467 11.6292 39.6328 11.333C39.5189 11.0368 39.3464 10.804 39.1152 10.6348C38.8874 10.4655 38.6074 10.3809 38.2754 10.3809C37.9564 10.3809 37.6829 10.4622 37.4551 10.625C37.2305 10.7878 37.0596 11.0173 36.9424 11.3135C36.8285 11.6064 36.7715 11.9499 36.7715 12.3438Z" fill="#858585"/>
</g>
<defs>
<filter id="filter0_d_1706_898" x="0.5" y="0.5" width="69" height="29" filterUnits="userSpaceOnUse" color-interpolation-filters="sRGB">
<feFlood flood-opacity="0" result="BackgroundImageFix"/>
<feColorMatrix in="SourceAlpha" type="matrix" values="0 0 0 0 0 0 0 0 0 0 0 0 0 0 0 0 0 0 127 0" result="hardAlpha"/>
<feOffset dx="4" dy="4"/>
<feGaussianBlur stdDeviation="2"/>
<feComposite in2="hardAlpha" operator="out"/>
<feColorMatrix type="matrix" values="0 0 0 0 0 0 0 0 0 0 0 0 0 0 0 0 0 0 0.1 0"/>
<feBlend mode="normal" in2="BackgroundImageFix" result="effect1_dropShadow_1706_898"/>
<feBlend mode="normal" in="SourceGraphic" in2="effect1_dropShadow_1706_898" result="shape"/>
</filter>
</defs>
</svg>
