<svg width="83" height="35" viewBox="0 0 83 35" fill="none" xmlns="http://www.w3.org/2000/svg">
<rect width="83" height="35" rx="17.5" fill="#E68C59"/>
<path d="M26.2344 11.3945H27.5674L29.7793 19.9785H29.8818L32.123 11.3945H33.6025L35.8584 19.9785H35.9463L38.1582 11.3945H39.4912L36.5908 22H35.2285L32.9141 13.6064H32.8262L30.4971 22H29.1348L26.2344 11.3945ZM43.3145 22.1611C42.5576 22.1611 41.8984 21.9927 41.3369 21.6558C40.7754 21.3188 40.3433 20.8428 40.0405 20.2275C39.7427 19.6123 39.5938 18.8994 39.5938 18.0889C39.5938 17.2783 39.7427 16.5605 40.0405 15.9355C40.3433 15.3057 40.7656 14.8174 41.3076 14.4707C41.8545 14.1191 42.4844 13.9434 43.1973 13.9434C43.7979 13.9434 44.3569 14.0776 44.8745 14.3462C45.3921 14.6099 45.812 15.0396 46.1343 15.6353C46.4614 16.2261 46.625 16.9854 46.625 17.9131V18.4404H40.8535C40.873 18.9922 40.9878 19.4634 41.1978 19.854C41.4126 20.2446 41.7007 20.5425 42.062 20.7476C42.4233 20.9478 42.8408 21.0479 43.3145 21.0479C43.7637 21.0479 44.1421 20.9648 44.4497 20.7988C44.7622 20.6279 44.999 20.4082 45.1602 20.1396H46.5078C46.3809 20.5449 46.1685 20.9014 45.8706 21.209C45.5776 21.5117 45.2114 21.7461 44.772 21.9121C44.3374 22.0781 43.8516 22.1611 43.3145 22.1611ZM45.3506 17.3711C45.3506 16.9316 45.2603 16.5361 45.0796 16.1846C44.9038 15.833 44.6523 15.5571 44.3252 15.3569C44.0029 15.1567 43.627 15.0566 43.1973 15.0566C42.7529 15.0566 42.3574 15.1616 42.0107 15.3716C41.6689 15.5815 41.3979 15.8647 41.1978 16.2212C41.0024 16.5728 40.8901 16.9561 40.8608 17.3711H45.3506ZM48.4268 11.3945H49.6865V15.3057H49.7891C49.9648 15.0322 50.1211 14.8149 50.2578 14.6538C50.3945 14.4878 50.6167 14.3291 50.9243 14.1777C51.2319 14.0215 51.6201 13.9434 52.0889 13.9434C52.7529 13.9434 53.3413 14.1118 53.854 14.4487C54.3667 14.7808 54.7671 15.2568 55.0552 15.877C55.3433 16.4971 55.4873 17.2197 55.4873 18.0449C55.4873 18.875 55.3433 19.6025 55.0552 20.2275C54.7671 20.8477 54.3667 21.3262 53.854 21.6631C53.3413 21.9951 52.7578 22.1611 52.1035 22.1611C51.6396 22.1611 51.2515 22.0854 50.939 21.9341C50.6313 21.7827 50.4019 21.6167 50.2505 21.436C50.0991 21.2554 49.9453 21.0381 49.7891 20.7842H49.6426V22H48.4268V11.3945ZM49.6572 18.0156C49.6572 18.6162 49.7451 19.1436 49.9209 19.5977C50.0967 20.0518 50.353 20.4058 50.6899 20.6597C51.0317 20.9087 51.4395 21.0332 51.9131 21.0332C52.4014 21.0332 52.8188 20.9014 53.1655 20.6377C53.5122 20.374 53.771 20.0151 53.9419 19.561C54.1177 19.1069 54.208 18.5918 54.2129 18.0156C54.208 17.4492 54.1201 16.9438 53.9492 16.4995C53.7783 16.0552 53.5195 15.7061 53.1729 15.4521C52.8311 15.1982 52.4111 15.0713 51.9131 15.0713C51.4346 15.0713 51.0244 15.1934 50.6826 15.4375C50.3457 15.6816 50.0894 16.0259 49.9136 16.4702C49.7427 16.9097 49.6572 17.4248 49.6572 18.0156Z" fill="white"/>
</svg>
